<svg xmlns="http://www.w3.org/2000/svg" xmlns:xlink="http://www.w3.org/1999/xlink" width="600" zoomAndPan="magnify" viewBox="0 0 450 149.999998" height="200" preserveAspectRatio="xMidYMid meet" version="1.0"><defs><g/><clipPath id="eb19de5aa1"><path d="M 0 0 L 326 0 L 326 150 L 0 150 Z M 0 0 " clip-rule="nonzero"/></clipPath><clipPath id="7f2611f404"><path d="M 175.761719 -289.53125 L 325.285156 -86.6875 L -175.789062 282.675781 L -325.3125 79.832031 Z M 175.761719 -289.53125 " clip-rule="nonzero"/></clipPath><clipPath id="dc908bed3a"><path d="M 81.480469 14.238281 L 375.480469 14.238281 L 375.480469 137.238281 L 81.480469 137.238281 Z M 81.480469 14.238281 " clip-rule="nonzero"/></clipPath><clipPath id="16d7c5bf47"><path d="M 210 16 L 450 16 L 450 150 L 210 150 Z M 210 16 " clip-rule="nonzero"/></clipPath><clipPath id="5591eae2af"><path d="M 468.054688 16.890625 L 524.574219 93.5625 L 267.394531 283.140625 L 210.875 206.46875 Z M 468.054688 16.890625 " clip-rule="nonzero"/></clipPath><clipPath id="6e8c92f1a4"><path d="M 112.367188 117.523438 L 350.867188 117.523438 L 350.867188 122.023438 L 112.367188 122.023438 Z M 112.367188 117.523438 " clip-rule="nonzero"/></clipPath></defs><g clip-path="url(#eb19de5aa1)"><g clip-path="url(#7f2611f404)"><path fill="#9e74e1" d="M 175.761719 -289.53125 L 325.285156 -86.6875 L -175.789062 282.675781 L -325.3125 79.832031 Z M 175.761719 -289.53125 " fill-opacity="1" fill-rule="nonzero"/></g></g><g clip-path="url(#dc908bed3a)"><path fill="#ffffff" d="M 352.210938 137.238281 L 104.753906 137.238281 C 91.933594 137.238281 81.492188 126.832031 81.492188 114.058594 L 81.492188 37.421875 C 81.492188 24.648438 91.933594 14.238281 104.753906 14.238281 L 352.210938 14.238281 C 365.027344 14.238281 375.472656 24.648438 375.472656 37.421875 L 375.472656 114.058594 C 375.472656 126.832031 365.027344 137.238281 352.210938 137.238281 " fill-opacity="1" fill-rule="nonzero"/></g><g fill="#5519b6" fill-opacity="1"><g transform="translate(182.03255, 63.639164)"><g><path d="M 16.1875 -19.984375 L 16.1875 -7.761719 L 7.160156 -19.984375 L 1.832031 -19.984375 L 1.832031 0 L 6.929688 0 L 6.929688 -12.257812 L 15.921875 0 L 21.285156 0 L 21.285156 -19.984375 Z M 16.1875 -19.984375 "/></g></g></g><g fill="#5519b6" fill-opacity="1"><g transform="translate(205.149686, 63.639164)"><g><path d="M 11.390625 0.265625 C 17.054688 0.265625 21.652344 -4.332031 21.652344 -9.992188 C 21.652344 -15.65625 17.054688 -20.253906 11.390625 -20.253906 C 5.695312 -20.253906 1.132812 -15.65625 1.132812 -9.992188 C 1.132812 -4.332031 5.695312 0.265625 11.390625 0.265625 Z M 11.390625 -4.730469 C 8.359375 -4.730469 6.097656 -6.960938 6.097656 -9.992188 C 6.097656 -13.023438 8.359375 -15.257812 11.390625 -15.257812 C 14.390625 -15.257812 16.65625 -13.023438 16.65625 -9.992188 C 16.65625 -6.960938 14.390625 -4.730469 11.390625 -4.730469 Z M 11.390625 -4.730469 "/></g></g></g><g fill="#5519b6" fill-opacity="1"><g transform="translate(227.900409, 63.639164)"><g><path d="M 14.089844 0 L 19.554688 0 L 12.324219 -19.984375 L 6.628906 -19.984375 L -0.597656 0 L 4.898438 0 L 5.996094 -3.496094 L 12.992188 -3.496094 Z M 7.292969 -7.628906 L 9.492188 -14.691406 L 11.726562 -7.628906 Z M 7.292969 -7.628906 "/></g></g></g><g fill="#5519b6" fill-opacity="1"><g transform="translate(246.88711, 63.639164)"><g><path d="M 14.125 -19.984375 L 14.125 -12.226562 L 6.929688 -12.226562 L 6.929688 -19.984375 L 1.832031 -19.984375 L 1.832031 0 L 6.929688 0 L 6.929688 -7.792969 L 14.125 -7.792969 L 14.125 0 L 19.21875 0 L 19.21875 -19.984375 Z M 14.125 -19.984375 "/></g></g></g><g fill="#5519b6" fill-opacity="1"><g transform="translate(177.634587, 90.287179)"><g><path d="M 14.554688 -19.984375 L -0.300781 -19.984375 L -0.300781 -15.554688 L 4.597656 -15.554688 L 4.597656 0 L 9.660156 0 L 9.660156 -15.554688 L 14.554688 -15.554688 Z M 14.554688 -19.984375 "/></g></g></g><g fill="#5519b6" fill-opacity="1"><g transform="translate(191.891271, 90.287179)"><g><path d="M 14.089844 0 L 19.554688 0 L 12.324219 -19.984375 L 6.628906 -19.984375 L -0.597656 0 L 4.898438 0 L 5.996094 -3.496094 L 12.992188 -3.496094 Z M 7.292969 -7.628906 L 9.492188 -14.691406 L 11.726562 -7.628906 Z M 7.292969 -7.628906 "/></g></g></g><g fill="#5519b6" fill-opacity="1"><g transform="translate(210.877971, 90.287179)"><g><path d="M 14.125 -19.984375 L 14.125 -12.226562 L 6.929688 -12.226562 L 6.929688 -19.984375 L 1.832031 -19.984375 L 1.832031 0 L 6.929688 0 L 6.929688 -7.792969 L 14.125 -7.792969 L 14.125 0 L 19.21875 0 L 19.21875 -19.984375 Z M 14.125 -19.984375 "/></g></g></g><g fill="#5519b6" fill-opacity="1"><g transform="translate(231.963194, 90.287179)"><g><path d="M 14.390625 -15.554688 L 14.390625 -19.984375 L 2 -19.984375 L 2 0 L 14.390625 0 L 14.390625 -4.429688 L 7.09375 -4.429688 L 7.09375 -7.792969 L 13.257812 -7.792969 L 13.257812 -12.191406 L 7.09375 -12.191406 L 7.09375 -15.554688 Z M 14.390625 -15.554688 "/></g></g></g><g fill="#5519b6" fill-opacity="1"><g transform="translate(247.485649, 90.287179)"><g><path d="M 2 0 L 7.09375 0 L 7.09375 -19.984375 L 2 -19.984375 Z M 2 0 "/></g></g></g><g fill="#5519b6" fill-opacity="1"><g transform="translate(256.545978, 90.287179)"><g><path d="M 14.257812 -19.984375 L 2.699219 -19.984375 L 2.699219 -15.554688 L 9.160156 -15.554688 L 9.160156 -5.894531 C 9.160156 -4.929688 8.394531 -4.128906 7.460938 -4.128906 C 6.628906 -4.128906 5.960938 -4.761719 5.828125 -5.628906 L 0.800781 -4.097656 C 1.265625 -1.398438 3.53125 0.265625 7.460938 0.265625 C 11.925781 0.265625 14.257812 -1.867188 14.257812 -5.230469 Z M 14.257812 -19.984375 "/></g></g></g><g fill="#5519b6" fill-opacity="1"><g transform="translate(168.807437, 106.068427)"><g><path d="M 3.542969 0.078125 C 4.683594 0.078125 5.675781 -0.546875 6.199219 -1.46875 L 5.65625 -1.777344 C 5.25 -1.042969 4.453125 -0.554688 3.542969 -0.554688 C 2.203125 -0.554688 1.121094 -1.628906 1.121094 -2.976562 C 1.121094 -4.324219 2.203125 -5.398438 3.542969 -5.398438 C 4.453125 -5.398438 5.25 -4.910156 5.65625 -4.175781 L 6.199219 -4.484375 C 5.675781 -5.40625 4.683594 -6.03125 3.542969 -6.03125 C 1.855469 -6.03125 0.484375 -4.664062 0.484375 -2.976562 C 0.484375 -1.289062 1.855469 0.078125 3.542969 0.078125 Z M 3.542969 0.078125 "/></g></g></g><g fill="#5519b6" fill-opacity="1"><g transform="translate(175.330948, 106.068427)"><g><path d="M 0.722656 0 L 1.339844 0 L 1.339844 -7.300781 L 0.722656 -7.300781 Z M 0.722656 0 "/></g></g></g><g fill="#5519b6" fill-opacity="1"><g transform="translate(177.39309, 106.068427)"><g><path d="M 2.511719 0.078125 C 3.652344 0.078125 4.574219 -0.84375 4.574219 -1.984375 C 4.574219 -3.125 3.652344 -4.046875 2.511719 -4.046875 C 1.367188 -4.046875 0.445312 -3.125 0.445312 -1.984375 C 0.445312 -0.84375 1.367188 0.078125 2.511719 0.078125 Z M 2.511719 -0.535156 C 1.707031 -0.535156 1.0625 -1.179688 1.0625 -1.984375 C 1.0625 -2.789062 1.707031 -3.433594 2.511719 -3.433594 C 3.304688 -3.433594 3.957031 -2.789062 3.957031 -1.984375 C 3.957031 -1.179688 3.304688 -0.535156 2.511719 -0.535156 Z M 2.511719 -0.535156 "/></g></g></g><g fill="#5519b6" fill-opacity="1"><g transform="translate(182.409652, 106.068427)"><g><path d="M 2.082031 0.078125 C 2.964844 0.078125 3.570312 -0.507812 3.570312 -1.429688 L 3.570312 -3.96875 L 2.964844 -3.96875 L 2.964844 -1.5 C 2.964844 -0.902344 2.597656 -0.535156 2.082031 -0.535156 C 1.578125 -0.535156 1.199219 -0.902344 1.199219 -1.5 L 1.199219 -3.96875 L 0.59375 -3.96875 L 0.59375 -1.429688 C 0.59375 -0.507812 1.191406 0.078125 2.082031 0.078125 Z M 2.082031 0.078125 "/></g></g></g><g fill="#5519b6" fill-opacity="1"><g transform="translate(186.563682, 106.068427)"><g><path d="M 3.957031 -7.300781 L 3.957031 -3.453125 C 3.582031 -3.820312 3.074219 -4.046875 2.511719 -4.046875 C 1.367188 -4.046875 0.445312 -3.125 0.445312 -1.984375 C 0.445312 -0.84375 1.367188 0.078125 2.511719 0.078125 C 3.074219 0.078125 3.582031 -0.148438 3.957031 -0.515625 L 3.957031 0 L 4.574219 0 L 4.574219 -7.300781 Z M 2.511719 -0.535156 C 1.707031 -0.535156 1.0625 -1.179688 1.0625 -1.984375 C 1.0625 -2.789062 1.707031 -3.433594 2.511719 -3.433594 C 3.304688 -3.433594 3.957031 -2.789062 3.957031 -1.984375 C 3.957031 -1.179688 3.304688 -0.535156 2.511719 -0.535156 Z M 2.511719 -0.535156 "/></g></g></g><g fill="#5519b6" fill-opacity="1"><g transform="translate(191.857837, 106.068427)"><g/></g></g><g fill="#5519b6" fill-opacity="1"><g transform="translate(194.247146, 106.068427)"><g><path d="M 4.027344 -5.335938 L 4.027344 -5.953125 L 0.773438 -5.953125 L 0.773438 0 L 4.027344 0 L 4.027344 -0.613281 L 1.410156 -0.613281 L 1.410156 -2.667969 L 3.691406 -2.667969 L 3.691406 -3.285156 L 1.410156 -3.285156 L 1.410156 -5.335938 Z M 4.027344 -5.335938 "/></g></g></g><g fill="#5519b6" fill-opacity="1"><g transform="translate(198.867139, 106.068427)"><g><path d="M 2.300781 -4.046875 C 1.933594 -4.046875 1.597656 -3.898438 1.339844 -3.652344 L 1.339844 -3.96875 L 0.722656 -3.96875 L 0.722656 0 L 1.339844 0 L 1.339844 -2.53125 C 1.339844 -3.035156 1.746094 -3.433594 2.253906 -3.433594 C 2.757812 -3.433594 3.15625 -3.035156 3.15625 -2.53125 L 3.15625 0 L 3.769531 0 L 3.769531 -2.53125 C 3.769531 -3.375 3.066406 -4.046875 2.300781 -4.046875 Z M 2.300781 -4.046875 "/></g></g></g><g fill="#5519b6" fill-opacity="1"><g transform="translate(203.308679, 106.068427)"><g><path d="M 3.949219 -3.96875 L 3.949219 -3.472656 C 3.582031 -3.828125 3.066406 -4.046875 2.511719 -4.046875 C 1.367188 -4.046875 0.445312 -3.136719 0.445312 -1.984375 C 0.445312 -0.84375 1.367188 0.078125 2.511719 0.078125 C 3.074219 0.078125 3.582031 -0.148438 3.957031 -0.515625 L 3.957031 0.347656 C 3.957031 1.140625 3.304688 1.796875 2.511719 1.796875 C 1.863281 1.796875 1.320312 1.367188 1.132812 0.792969 L 0.566406 1.042969 C 0.851562 1.84375 1.617188 2.410156 2.511719 2.410156 C 3.652344 2.410156 4.574219 1.488281 4.574219 0.347656 L 4.574219 -3.96875 Z M 2.511719 -0.535156 C 1.707031 -0.535156 1.0625 -1.191406 1.0625 -1.984375 C 1.0625 -2.789062 1.707031 -3.433594 2.511719 -3.433594 C 3.304688 -3.433594 3.957031 -2.789062 3.957031 -1.984375 C 3.957031 -1.191406 3.304688 -0.535156 2.511719 -0.535156 Z M 2.511719 -0.535156 "/></g></g></g><g fill="#5519b6" fill-opacity="1"><g transform="translate(208.602835, 106.068427)"><g><path d="M 1.109375 -4.710938 C 1.339844 -4.710938 1.539062 -4.902344 1.539062 -5.128906 C 1.539062 -5.378906 1.339844 -5.554688 1.109375 -5.554688 C 0.871094 -5.554688 0.675781 -5.378906 0.675781 -5.128906 C 0.675781 -4.902344 0.871094 -4.710938 1.109375 -4.710938 Z M 0.804688 0 L 1.417969 0 L 1.417969 -3.96875 L 0.804688 -3.96875 Z M 0.804688 0 "/></g></g></g><g fill="#5519b6" fill-opacity="1"><g transform="translate(210.813691, 106.068427)"><g><path d="M 2.300781 -4.046875 C 1.933594 -4.046875 1.597656 -3.898438 1.339844 -3.652344 L 1.339844 -3.96875 L 0.722656 -3.96875 L 0.722656 0 L 1.339844 0 L 1.339844 -2.53125 C 1.339844 -3.035156 1.746094 -3.433594 2.253906 -3.433594 C 2.757812 -3.433594 3.15625 -3.035156 3.15625 -2.53125 L 3.15625 0 L 3.769531 0 L 3.769531 -2.53125 C 3.769531 -3.375 3.066406 -4.046875 2.300781 -4.046875 Z M 2.300781 -4.046875 "/></g></g></g><g fill="#5519b6" fill-opacity="1"><g transform="translate(215.255231, 106.068427)"><g><path d="M 4.574219 -2.023438 C 4.542969 -3.164062 3.640625 -4.046875 2.511719 -4.046875 C 1.367188 -4.046875 0.445312 -3.125 0.445312 -1.984375 C 0.445312 -0.84375 1.367188 0.078125 2.511719 0.078125 C 3.453125 0.078125 4.234375 -0.546875 4.496094 -1.398438 L 3.839844 -1.398438 C 3.621094 -0.882812 3.105469 -0.535156 2.511719 -0.535156 C 1.726562 -0.535156 1.101562 -1.132812 1.0625 -1.894531 L 4.5625 -1.894531 Z M 2.511719 -3.433594 C 3.144531 -3.433594 3.679688 -3.027344 3.871094 -2.449219 L 1.140625 -2.449219 C 1.339844 -3.027344 1.875 -3.433594 2.511719 -3.433594 Z M 2.511719 -3.433594 "/></g></g></g><g fill="#5519b6" fill-opacity="1"><g transform="translate(220.232137, 106.068427)"><g><path d="M 4.574219 -2.023438 C 4.542969 -3.164062 3.640625 -4.046875 2.511719 -4.046875 C 1.367188 -4.046875 0.445312 -3.125 0.445312 -1.984375 C 0.445312 -0.84375 1.367188 0.078125 2.511719 0.078125 C 3.453125 0.078125 4.234375 -0.546875 4.496094 -1.398438 L 3.839844 -1.398438 C 3.621094 -0.882812 3.105469 -0.535156 2.511719 -0.535156 C 1.726562 -0.535156 1.101562 -1.132812 1.0625 -1.894531 L 4.5625 -1.894531 Z M 2.511719 -3.433594 C 3.144531 -3.433594 3.679688 -3.027344 3.871094 -2.449219 L 1.140625 -2.449219 C 1.339844 -3.027344 1.875 -3.433594 2.511719 -3.433594 Z M 2.511719 -3.433594 "/></g></g></g><g fill="#5519b6" fill-opacity="1"><g transform="translate(225.209043, 106.068427)"><g><path d="M 2.660156 -4.046875 C 2.09375 -4.046875 1.636719 -3.800781 1.339844 -3.402344 L 1.339844 -3.96875 L 0.722656 -3.96875 L 0.722656 0 L 1.339844 0 L 1.339844 -2.152344 C 1.339844 -2.878906 1.933594 -3.433594 2.660156 -3.433594 C 2.777344 -3.433594 2.878906 -3.421875 2.964844 -3.394531 L 2.964844 -4.019531 C 2.878906 -4.039062 2.777344 -4.046875 2.660156 -4.046875 Z M 2.660156 -4.046875 "/></g></g></g><g fill="#5519b6" fill-opacity="1"><g transform="translate(228.222947, 106.068427)"><g/></g></g><g fill="#5519b6" fill-opacity="1"><g transform="translate(230.606145, 106.068427)"><g><path d="M 2.300781 -1.261719 C 3.027344 -1.261719 3.652344 -1.863281 3.652344 -2.617188 C 3.652344 -3.351562 3.027344 -3.976562 2.300781 -3.976562 C 1.566406 -3.976562 0.941406 -3.351562 0.941406 -2.617188 C 0.941406 -1.863281 1.566406 -1.261719 2.300781 -1.261719 Z M 2.300781 -1.261719 "/></g></g></g><g fill="#5519b6" fill-opacity="1"><g transform="translate(235.1964, 106.068427)"><g/></g></g><g fill="#5519b6" fill-opacity="1"><g transform="translate(237.585709, 106.068427)"><g><path d="M 4.316406 0 L 5.011719 0 L 2.855469 -5.953125 L 2.152344 -5.953125 L 0 0 L 0.695312 0 L 1.179688 -1.390625 L 3.828125 -1.390625 Z M 1.390625 -1.992188 L 2.511719 -5.199219 L 3.621094 -1.992188 Z M 1.390625 -1.992188 "/></g></g></g><g fill="#5519b6" fill-opacity="1"><g transform="translate(242.592353, 106.068427)"><g><path d="M 2.082031 0.078125 C 2.964844 0.078125 3.570312 -0.507812 3.570312 -1.429688 L 3.570312 -3.96875 L 2.964844 -3.96875 L 2.964844 -1.5 C 2.964844 -0.902344 2.597656 -0.535156 2.082031 -0.535156 C 1.578125 -0.535156 1.199219 -0.902344 1.199219 -1.5 L 1.199219 -3.96875 L 0.59375 -3.96875 L 0.59375 -1.429688 C 0.59375 -0.507812 1.191406 0.078125 2.082031 0.078125 Z M 2.082031 0.078125 "/></g></g></g><g fill="#5519b6" fill-opacity="1"><g transform="translate(246.746383, 106.068427)"><g><path d="M 2.550781 -3.375 L 2.550781 -3.96875 L 1.488281 -3.96875 L 1.488281 -5.695312 L 0.871094 -5.695312 L 0.871094 -3.96875 L 0.207031 -3.96875 L 0.207031 -3.375 L 0.871094 -3.375 L 0.871094 -1.042969 C 0.871094 -0.417969 1.398438 0.078125 2.015625 0.078125 C 2.210938 0.078125 2.429688 0.0195312 2.539062 -0.0507812 L 2.539062 -0.515625 L 2.082031 -0.515625 C 1.765625 -0.515625 1.488281 -0.753906 1.488281 -1.121094 L 1.488281 -3.375 Z M 2.550781 -3.375 "/></g></g></g><g fill="#5519b6" fill-opacity="1"><g transform="translate(249.62149, 106.068427)"><g><path d="M 2.511719 0.078125 C 3.652344 0.078125 4.574219 -0.84375 4.574219 -1.984375 C 4.574219 -3.125 3.652344 -4.046875 2.511719 -4.046875 C 1.367188 -4.046875 0.445312 -3.125 0.445312 -1.984375 C 0.445312 -0.84375 1.367188 0.078125 2.511719 0.078125 Z M 2.511719 -0.535156 C 1.707031 -0.535156 1.0625 -1.179688 1.0625 -1.984375 C 1.0625 -2.789062 1.707031 -3.433594 2.511719 -3.433594 C 3.304688 -3.433594 3.957031 -2.789062 3.957031 -1.984375 C 3.957031 -1.179688 3.304688 -0.535156 2.511719 -0.535156 Z M 2.511719 -0.535156 "/></g></g></g><g fill="#5519b6" fill-opacity="1"><g transform="translate(254.638052, 106.068427)"><g><path d="M 4.523438 -4.046875 C 4.046875 -4.046875 3.632812 -3.820312 3.363281 -3.453125 C 3.09375 -3.820312 2.679688 -4.046875 2.261719 -4.046875 C 1.90625 -4.046875 1.578125 -3.871094 1.339844 -3.601562 L 1.339844 -3.96875 L 0.722656 -3.96875 L 0.722656 0 L 1.339844 0 L 1.339844 -2.539062 C 1.339844 -3.035156 1.714844 -3.433594 2.203125 -3.433594 C 2.667969 -3.433594 3.054688 -3.035156 3.054688 -2.539062 L 3.054688 0 L 3.671875 0 L 3.671875 -2.539062 C 3.671875 -3.035156 4.058594 -3.433594 4.523438 -3.433594 C 5 -3.433594 5.386719 -3.035156 5.386719 -2.539062 L 5.386719 0 L 6.003906 0 L 6.003906 -2.539062 C 6.003906 -3.375 5.347656 -4.046875 4.523438 -4.046875 Z M 4.523438 -4.046875 "/></g></g></g><g fill="#5519b6" fill-opacity="1"><g transform="translate(261.300366, 106.068427)"><g><path d="M 4.980469 -0.515625 C 4.761719 -0.515625 4.574219 -0.664062 4.574219 -1.03125 L 4.574219 -3.96875 L 3.957031 -3.96875 L 3.957031 -3.453125 C 3.589844 -3.820312 3.074219 -4.046875 2.511719 -4.046875 C 1.367188 -4.046875 0.445312 -3.125 0.445312 -1.984375 C 0.445312 -0.84375 1.367188 0.078125 2.511719 0.078125 C 3.105469 0.078125 3.640625 -0.199219 4.019531 -0.605469 C 4.148438 -0.199219 4.464844 0.078125 4.929688 0.078125 C 5.039062 0.078125 5.148438 0.0507812 5.226562 0 L 5.226562 -0.515625 Z M 2.511719 -0.535156 C 1.707031 -0.535156 1.0625 -1.179688 1.0625 -1.984375 C 1.0625 -2.789062 1.707031 -3.433594 2.511719 -3.433594 C 3.304688 -3.433594 3.957031 -2.789062 3.957031 -1.984375 C 3.957031 -1.179688 3.304688 -0.535156 2.511719 -0.535156 Z M 2.511719 -0.535156 "/></g></g></g><g fill="#5519b6" fill-opacity="1"><g transform="translate(266.644095, 106.068427)"><g><path d="M 2.550781 -3.375 L 2.550781 -3.96875 L 1.488281 -3.96875 L 1.488281 -5.695312 L 0.871094 -5.695312 L 0.871094 -3.96875 L 0.207031 -3.96875 L 0.207031 -3.375 L 0.871094 -3.375 L 0.871094 -1.042969 C 0.871094 -0.417969 1.398438 0.078125 2.015625 0.078125 C 2.210938 0.078125 2.429688 0.0195312 2.539062 -0.0507812 L 2.539062 -0.515625 L 2.082031 -0.515625 C 1.765625 -0.515625 1.488281 -0.753906 1.488281 -1.121094 L 1.488281 -3.375 Z M 2.550781 -3.375 "/></g></g></g><g fill="#5519b6" fill-opacity="1"><g transform="translate(269.519203, 106.068427)"><g><path d="M 1.109375 -4.710938 C 1.339844 -4.710938 1.539062 -4.902344 1.539062 -5.128906 C 1.539062 -5.378906 1.339844 -5.554688 1.109375 -5.554688 C 0.871094 -5.554688 0.675781 -5.378906 0.675781 -5.128906 C 0.675781 -4.902344 0.871094 -4.710938 1.109375 -4.710938 Z M 0.804688 0 L 1.417969 0 L 1.417969 -3.96875 L 0.804688 -3.96875 Z M 0.804688 0 "/></g></g></g><g fill="#5519b6" fill-opacity="1"><g transform="translate(271.730059, 106.068427)"><g><path d="M 2.511719 0.078125 C 3.652344 0.078125 4.574219 -0.84375 4.574219 -1.984375 C 4.574219 -3.125 3.652344 -4.046875 2.511719 -4.046875 C 1.367188 -4.046875 0.445312 -3.125 0.445312 -1.984375 C 0.445312 -0.84375 1.367188 0.078125 2.511719 0.078125 Z M 2.511719 -0.535156 C 1.707031 -0.535156 1.0625 -1.179688 1.0625 -1.984375 C 1.0625 -2.789062 1.707031 -3.433594 2.511719 -3.433594 C 3.304688 -3.433594 3.957031 -2.789062 3.957031 -1.984375 C 3.957031 -1.179688 3.304688 -0.535156 2.511719 -0.535156 Z M 2.511719 -0.535156 "/></g></g></g><g fill="#5519b6" fill-opacity="1"><g transform="translate(276.746621, 106.068427)"><g><path d="M 2.300781 -4.046875 C 1.933594 -4.046875 1.597656 -3.898438 1.339844 -3.652344 L 1.339844 -3.96875 L 0.722656 -3.96875 L 0.722656 0 L 1.339844 0 L 1.339844 -2.53125 C 1.339844 -3.035156 1.746094 -3.433594 2.253906 -3.433594 C 2.757812 -3.433594 3.15625 -3.035156 3.15625 -2.53125 L 3.15625 0 L 3.769531 0 L 3.769531 -2.53125 C 3.769531 -3.375 3.066406 -4.046875 2.300781 -4.046875 Z M 2.300781 -4.046875 "/></g></g></g><g clip-path="url(#16d7c5bf47)"><g clip-path="url(#5591eae2af)"><path fill="#9e74e1" d="M 468.054688 16.890625 L 524.574219 93.5625 L 267.394531 283.140625 L 210.875 206.46875 Z M 468.054688 16.890625 " fill-opacity="1" fill-rule="nonzero"/></g></g><g clip-path="url(#6e8c92f1a4)"><path fill="#d7cee4" d="M 113.367188 117.523438 L 349.871094 117.523438 C 350.320312 117.523438 350.691406 117.902344 350.691406 118.371094 L 350.691406 121.175781 C 350.691406 121.640625 350.320312 122.023438 349.871094 122.023438 L 113.367188 122.023438 C 112.914062 122.023438 112.546875 121.640625 112.546875 121.175781 L 112.546875 118.371094 C 112.546875 117.902344 112.914062 117.523438 113.367188 117.523438 " fill-opacity="1" fill-rule="nonzero"/></g></svg>